<?xml version="1.0" encoding="UTF-8"?>
<svg xmlns="http://www.w3.org/2000/svg" width="512" height="512" viewBox="0 0 512 512">
  <title>AtnKit package overview</title>
  <desc>An action sequence and play control representing Photoshop automation.</desc>
  <defs>
    <radialGradient id="inner-circle" cx="50%" cy="50%" r="50%">
      <stop offset="0" stop-color="#000000" stop-opacity="1"/>
      <stop offset="1" stop-color="#000000" stop-opacity="0"/>
    </radialGradient>
    <linearGradient id="blue-ring" x1="0" y1="0" x2="1" y2="0">
      <stop offset="0" stop-color="#007cf9" stop-opacity="0"/>
      <stop offset="1" stop-color="#007cf9"/>
    </linearGradient>
  </defs>
  <rect width="512" height="512" rx="82" fill="#181f33"/>
  <g transform="translate(38.4 38.4) scale(.534233)" opacity=".94">
    <circle cx="407.5" cy="407.5" r="400" fill="url(#inner-circle)"/>
    <g fill="#303950">
      <path d="m272.4 156.6s-84 31.2-133.5 148.6l273.4-51.7z"/>
      <path d="m134.7 321.9s-37 81.6 11.4 199.4l156.1-230.4z"/>
      <path d="m155.7 533s31.2 83.9 148.6 133.5L252.6 393z"/>
      <path d="m321 670.6s81.5 37 199.4-11.4L290 503.2z"/>
      <path d="m536.5 652.3s84-31.2 133.5-148.6l-273.5 51.7z"/>
      <path d="m662.8 287.6-156 230.5L674.2 487s36.9-81.5-11.4-199.4z"/>
      <path d="m652.3 276s-31.2-83.9-148.6-133.5L555.4 416z"/>
      <path d="m487 138.4s-81.5-37-199.4 11.4l230.5 156z"/>
    </g>
    <circle cx="404.7" cy="404.7" r="324.7" fill="none" stroke="#303950" stroke-width="30"/>
    <circle cx="407.2" cy="407.2" r="386.2" fill="none" stroke="#303950" stroke-width="30"/>
    <circle cx="404.7" cy="404.7" r="324.7" fill="none" stroke="url(#blue-ring)" stroke-width="30"/>
  </g>
  <circle cx="256" cy="256" r="104" fill="#11182a" fill-opacity=".94" stroke="#303950" stroke-width="3"/>
  <rect x="190" y="194" width="132" height="124" rx="14" fill="#11182a" stroke="#edf6ff" stroke-width="8"/>
  <path d="M213 220v72" fill="none" stroke="#56627f" stroke-linecap="round" stroke-width="6"/>
  <g stroke="#007cf9" stroke-width="5">
    <circle cx="213" cy="220" r="7" fill="#86c8ff"/>
    <circle cx="213" cy="256" r="7" fill="#007cf9"/>
    <circle cx="213" cy="292" r="7" fill="#11182a"/>
  </g>
  <g fill="none" stroke="#56627f" stroke-linecap="round" stroke-width="7">
    <path d="M234 220h31"/>
    <path d="M234 256h25"/>
    <path d="M234 292h31"/>
  </g>
  <path d="m279 233 31 23-31 23z" fill="#007cf9" stroke="#007cf9" stroke-linejoin="round" stroke-width="5"/>
</svg>
